<svg width="32" height="32" viewBox="0 0 32 32" fill="none" xmlns="http://www.w3.org/2000/svg">
<path d="M3.85004 0H0V3.93518H3.85004V0Z" fill="#00B37E"/>
<path d="M31.9092 28.0672V23.9479H26.1329V20.0466H29.6149V20.0224H31.2042V8.1151H27.519V3.93518H31.2472V0H27.3995V3.91337H23.0667V0.191428H8.47436V3.91337H4.04837V8.2096H8.90214V15.7504H3.99579V8.1151H0.145752V20.0224H1.95008V20.0466H5.43448V23.7589H0.365618V28.0551V31.8086H4.22521V28.0551H9.27256V24.0569H13.1704V27.8661H10.8475V31.8013H14.6975V28.0551H20.892V24.0569H24.1852V28.2466H28.1523V32H32V28.0672H31.9092ZM20.4833 15.7504H16.3298V8.2096H20.4833V15.7504Z" fill="#00B37E"/>
</svg>
